<svg width="50" height="50" viewBox="0 0 50 50" fill="none" xmlns="http://www.w3.org/2000/svg">
<path d="M34.9226 33.684L37.7005 30.5595C38.1345 30.0713 38.8897 30.413 38.8897 31.116V45.3132C38.8897 47.9007 37.0234 50 34.723 50H4.16676C1.86636 50 0 47.9007 0 45.3132V10.9432C0 8.35571 1.86636 6.25641 4.16676 6.25641H27.9086C28.5249 6.25641 28.8374 7.09613 28.4034 7.5941L25.6256 10.7186C25.4953 10.8651 25.3217 10.9432 25.1308 10.9432H4.16676V45.3132H34.723V34.2308C34.723 34.0258 34.7924 33.8305 34.9226 33.684ZM48.5167 13.9799L25.721 39.6207L17.8736 40.5971C15.5993 40.8802 13.6635 38.7224 13.9152 36.1446L14.7833 27.3178L37.5789 1.677C39.5668 -0.559 42.7787 -0.559 44.7579 1.677L48.508 5.89513C50.4959 8.13113 50.4959 11.7536 48.5167 13.9799V13.9799ZM39.9401 16.997L34.8966 11.324L18.7678 29.4757L18.1341 35.8517L23.8026 35.1389L39.9401 16.997ZM45.5652 9.21496L41.8151 4.99683C41.4592 4.59649 40.8776 4.59649 40.5304 4.99683L37.848 8.01396L42.8916 13.687L45.5739 10.6698C45.9211 10.2597 45.9211 9.61529 45.5652 9.21496V9.21496Z" fill="#4A67FF"/>
</svg>
