<svg width="50" height="50" viewBox="0 0 50 50" fill="none" xmlns="http://www.w3.org/2000/svg">
<path d="M17.1875 17.1875C17.6019 17.1875 17.9993 17.3521 18.2924 17.6451C18.5854 17.9382 18.75 18.3356 18.75 18.75V37.5C18.75 37.9144 18.5854 38.3118 18.2924 38.6049C17.9993 38.8979 17.6019 39.0625 17.1875 39.0625C16.7731 39.0625 16.3757 38.8979 16.0826 38.6049C15.7896 38.3118 15.625 37.9144 15.625 37.5V18.75C15.625 18.3356 15.7896 17.9382 16.0826 17.6451C16.3757 17.3521 16.7731 17.1875 17.1875 17.1875V17.1875ZM25 17.1875C25.4144 17.1875 25.8118 17.3521 26.1049 17.6451C26.3979 17.9382 26.5625 18.3356 26.5625 18.75V37.5C26.5625 37.9144 26.3979 38.3118 26.1049 38.6049C25.8118 38.8979 25.4144 39.0625 25 39.0625C24.5856 39.0625 24.1882 38.8979 23.8951 38.6049C23.6021 38.3118 23.4375 37.9144 23.4375 37.5V18.75C23.4375 18.3356 23.6021 17.9382 23.8951 17.6451C24.1882 17.3521 24.5856 17.1875 25 17.1875V17.1875ZM34.375 18.75C34.375 18.3356 34.2104 17.9382 33.9174 17.6451C33.6243 17.3521 33.2269 17.1875 32.8125 17.1875C32.3981 17.1875 32.0007 17.3521 31.7076 17.6451C31.4146 17.9382 31.25 18.3356 31.25 18.75V37.5C31.25 37.9144 31.4146 38.3118 31.7076 38.6049C32.0007 38.8979 32.3981 39.0625 32.8125 39.0625C33.2269 39.0625 33.6243 38.8979 33.9174 38.6049C34.2104 38.3118 34.375 37.9144 34.375 37.5V18.75Z" fill="#FF3333"/>
<path fill-rule="evenodd" clip-rule="evenodd" d="M45.3125 9.375C45.3125 10.2038 44.9833 10.9987 44.3972 11.5847C43.8112 12.1708 43.0163 12.5 42.1875 12.5H40.625V40.625C40.625 42.2826 39.9665 43.8723 38.7944 45.0444C37.6223 46.2165 36.0326 46.875 34.375 46.875H15.625C13.9674 46.875 12.3777 46.2165 11.2056 45.0444C10.0335 43.8723 9.375 42.2826 9.375 40.625V12.5H7.8125C6.9837 12.5 6.18884 12.1708 5.60279 11.5847C5.01674 10.9987 4.6875 10.2038 4.6875 9.375V6.25C4.6875 5.4212 5.01674 4.62634 5.60279 4.04029C6.18884 3.45424 6.9837 3.125 7.8125 3.125H18.75C18.75 2.2962 19.0792 1.50134 19.6653 0.915291C20.2513 0.32924 21.0462 0 21.875 0L28.125 0C28.9538 0 29.7487 0.32924 30.3347 0.915291C30.9208 1.50134 31.25 2.2962 31.25 3.125H42.1875C43.0163 3.125 43.8112 3.45424 44.3972 4.04029C44.9833 4.62634 45.3125 5.4212 45.3125 6.25V9.375ZM12.8688 12.5L12.5 12.6844V40.625C12.5 41.4538 12.8292 42.2487 13.4153 42.8347C14.0013 43.4208 14.7962 43.75 15.625 43.75H34.375C35.2038 43.75 35.9987 43.4208 36.5847 42.8347C37.1708 42.2487 37.5 41.4538 37.5 40.625V12.6844L37.1312 12.5H12.8688ZM7.8125 9.375V6.25H42.1875V9.375H7.8125Z" fill="#FF3333"/>
</svg>
