<svg width="1436" height="288" viewBox="0 0 1436 288" fill="none" xmlns="http://www.w3.org/2000/svg">
<path fill-rule="evenodd" clip-rule="evenodd" d="M0 288H47.8667C95.7333 288 191.467 288 287.2 258C382.933 228 478.667 168 574.4 132C670.133 96 765.867 84 861.6 96C957.333 108 1053.07 144 1148.8 150C1244.53 156 1340.27 132 1388.13 120L1436 108V0H1388.13C1340.27 0 1244.53 0 1148.8 0C1053.07 0 957.333 0 861.6 0C765.867 0 670.133 0 574.4 0C478.667 0 382.933 0 287.2 0C191.467 0 95.7333 0 47.8667 0H0V288Z" fill="#E2F9F3"/>
</svg>
