<svg width="539" height="534" viewBox="0 0 539 534" fill="none" xmlns="http://www.w3.org/2000/svg">
<g clip-path="url(#clip0_742_72)">
<path d="M534.384 266.999C534.419 297.386 529.252 327.554 519.108 356.2C519.101 356.219 519.095 356.232 519.089 356.251C519.044 356.384 519 356.504 518.949 356.637V356.644C516.785 362.719 514.407 368.694 511.815 374.566C505.278 389.376 497.405 403.56 488.295 416.944C486.086 420.204 483.799 423.411 481.434 426.565C478.832 430.053 476.148 433.471 473.38 436.82C470.829 439.908 468.21 442.938 465.523 445.908C462.331 449.447 459.043 452.895 455.661 456.252C447.699 464.175 439.246 471.589 430.35 478.449C428.789 479.66 427.211 480.85 425.616 482.019C421.903 484.759 418.116 487.402 414.255 489.947C405.763 495.557 396.954 500.672 387.873 505.269C386.305 506.068 384.725 506.855 383.138 507.616C377.001 510.577 370.739 513.302 364.352 515.791C362.531 516.507 360.703 517.198 358.856 517.864C358.545 517.985 358.234 518.099 357.917 518.207C336.016 526.105 313.172 531.091 289.97 533.034C288.358 533.18 286.744 533.303 285.128 533.402C283.414 533.523 281.698 533.62 279.98 533.694C278.622 533.764 277.27 533.815 275.906 533.853C275.627 533.865 275.341 533.878 275.062 533.878C273.228 533.935 271.387 533.971 269.54 533.986C268.76 533.992 267.979 533.998 267.192 533.998C266.824 533.998 266.456 533.998 266.088 533.992C260.763 533.973 255.478 533.8 250.234 533.472C250.126 533.466 250.018 533.453 249.91 533.453C248.032 533.326 246.159 533.193 244.293 533.028C237.649 532.47 231.076 531.667 224.575 530.618C223.077 530.384 221.583 530.13 220.094 529.857C213.627 528.716 207.244 527.339 200.946 525.729C199.074 525.253 197.212 524.756 195.361 524.238C184.677 521.267 174.191 517.628 163.964 513.343C158.094 510.882 152.333 508.222 146.683 505.364C144.138 504.077 141.618 502.749 139.124 501.381C138.445 501.014 137.772 500.639 137.099 500.265C132.187 497.526 127.376 494.638 122.667 491.602C118.808 489.122 115.022 486.543 111.307 483.865C110.85 483.548 110.399 483.218 109.949 482.888C107.099 480.814 104.296 478.688 101.539 476.508C95.5418 471.758 89.7579 466.767 84.1877 461.535C80.3353 457.92 76.5951 454.19 72.9669 450.347C51.8269 428.007 34.7004 402.19 22.3401 374.034C19.7126 368.04 17.3009 361.937 15.1049 355.724C15.0978 355.71 15.0935 355.695 15.0923 355.68C5.07095 327.187 -0.0324337 297.2 3.18559e-05 266.999C3.18559e-05 154.898 69.1399 58.9301 167.131 19.3559C202.054 5.31231 239.546 -1.21919 277.164 0.187174C314.781 1.59354 351.68 10.9062 385.455 27.5181C473.698 71.1068 534.384 161.975 534.384 266.999Z" fill="#A1A0D9"/>
<path d="M385.454 27.5181V364.92H167.131V19.3559C202.054 5.31231 239.546 -1.21919 277.163 0.187174C314.781 1.59354 351.68 10.9062 385.454 27.5181Z" fill="white"/>
<path d="M219.67 181.381C225.592 171.593 232.61 161.142 243.601 157.945C256.329 154.244 269.404 161.597 280.495 168.853C313.662 190.553 345.602 214.069 376.17 239.295L376.137 239.674C352.338 238.035 328.54 236.395 304.742 234.755C287.548 233.57 269.763 232.221 254.568 224.093C248.802 221.009 243.182 216.889 236.648 216.602C228.53 216.245 221.452 221.911 215.89 227.829C182.987 262.842 173.465 316.383 136.551 347.144C159.828 289.781 187.621 234.353 219.67 181.381Z" fill="#A1A0D9"/>
<path d="M401.423 36.1239C400.871 35.756 400.313 35.4072 399.761 35.0521C383.8 24.8514 366.692 16.5645 348.791 10.3626L344.64 67.5803H318.327V2.01012C316.671 1.66765 315.002 1.34421 313.333 1.03979V67.5803H282.063C264.849 67.5803 248.339 60.7469 236.167 48.5833C223.995 36.4198 217.156 19.9224 217.156 2.72051V2.72044C215.481 3.08194 213.818 3.4688 212.155 3.88103V67.5803H186.686L182.732 13.0199C164.336 20.0699 146.872 29.3409 130.728 40.6267C130.449 40.817 130.17 41.0136 129.897 41.2039C128.494 42.1869 127.111 43.1889 125.733 44.2037V362.694H200.795L199.468 344.334L192.17 143.323H339.151L331.852 344.334L330.526 362.694H404.755V38.3309C403.651 37.5826 402.54 36.8469 401.423 36.1239ZM212.155 126.675H190.964L187.048 72.5778H212.155V126.675ZM313.333 126.675H277.741V125.604C277.741 125.088 277.639 124.578 277.442 124.102C277.244 123.626 276.955 123.194 276.59 122.83C276.225 122.466 275.792 122.177 275.315 121.981C274.839 121.784 274.328 121.683 273.812 121.684H258.339C257.824 121.684 257.314 121.785 256.838 121.982C256.362 122.179 255.93 122.468 255.565 122.832C255.201 123.196 254.912 123.628 254.715 124.103C254.518 124.579 254.417 125.089 254.417 125.604V126.675H217.156V72.5778H313.333V126.675ZM318.327 126.675V72.5778H344.279L340.363 126.675H318.327Z" fill="#3F3D56"/>
<path d="M519.108 356.198C519.102 356.218 519.096 356.23 519.089 356.249C519.045 356.382 519 356.503 518.95 356.636V356.642C516.785 362.718 514.408 368.692 511.816 374.565L22.3406 374.032C19.7131 368.039 17.3014 361.936 15.1055 355.723C15.0983 355.709 15.094 355.694 15.0928 355.678L519.108 356.198Z" fill="#3F3D56"/>
<path d="M336.186 358.285H250.507V369.701H336.186V358.285Z" fill="white"/>
<path d="M137.093 470.077C137.397 467.394 137.818 464.729 138.356 462.08C141.293 447.717 147.596 434.255 156.748 422.797C161.984 423.089 166.573 422.29 167.011 412.156C167.093 410.354 168.432 408.788 168.724 407.012C168.229 407.082 167.715 407.12 167.22 407.152C167.061 407.158 166.896 407.171 166.744 407.177H166.687C166.137 407.203 165.592 407.069 165.117 406.792C164.642 406.514 164.257 406.106 164.01 405.615C163.762 405.124 163.662 404.572 163.721 404.025C163.781 403.479 163.998 402.961 164.345 402.535C164.561 402.275 164.777 402.008 164.992 401.742C165.316 401.33 165.653 400.93 165.983 400.524C166.021 400.48 166.052 400.442 166.09 400.397C166.465 399.934 166.839 399.471 167.22 399.008C166.532 397.941 165.607 397.047 164.516 396.396C160.74 394.182 155.53 395.717 152.801 399.129C150.065 402.541 149.545 407.336 150.497 411.597C151.309 415.25 153.08 418.599 155.066 421.783C154.863 422.043 154.648 422.296 154.444 422.563C150.701 427.374 147.439 432.54 144.702 437.987C145.477 431.943 136.014 410.126 132.352 405.503C127.954 399.953 118.942 402.376 118.167 409.416C118.161 409.479 118.148 409.549 118.142 409.619C118.688 409.923 119.221 410.247 119.741 410.595C120.395 411.032 120.902 411.656 121.194 412.385C121.487 413.114 121.553 413.914 121.383 414.682C121.213 415.449 120.815 416.147 120.241 416.684C119.667 417.221 118.944 417.572 118.167 417.692L118.085 417.705C110.812 428.087 134.135 455.11 139.981 449.047C138.511 453.174 137.338 457.4 136.471 461.693C135.693 465.48 135.15 469.312 134.846 473.166C134.476 478.02 134.499 482.896 134.916 487.746C134.904 487.689 134.896 487.632 134.891 487.575C133.59 477.009 111.332 461.3 104.833 462.606C101.089 463.361 97.4012 463.19 97.9724 466.963C97.9787 467.027 97.9914 467.084 97.9978 467.147C99.007 467.554 99.9886 468.027 100.936 468.561C101.482 468.866 102.015 469.196 102.536 469.538C103.148 469.947 103.632 470.521 103.932 471.193C104.232 471.865 104.336 472.608 104.232 473.336C104.127 474.065 103.819 474.749 103.343 475.31C102.867 475.871 102.241 476.286 101.539 476.508C104.3 478.683 107.103 480.81 109.948 482.888C110.399 483.218 110.85 483.548 111.307 483.865C115.019 486.541 118.806 489.12 122.667 491.602C127.376 494.633 132.187 497.521 137.099 500.265C137.772 500.639 138.445 501.014 139.124 501.381C137.416 494.361 136.551 487.163 136.547 479.939C136.545 476.644 136.728 473.352 137.093 470.077ZM140.564 447.417L140.577 447.398C140.577 447.41 140.572 447.421 140.564 447.43V447.417ZM135.506 493.023L135.309 492.585C135.316 492.262 135.316 491.945 135.309 491.615C135.309 491.526 135.29 491.437 135.29 491.348C135.367 491.913 135.43 492.477 135.513 493.042L135.506 493.023ZM164.656 493.885C164.726 493.593 164.783 493.391 164.853 493.099C164.827 493.035 164.802 492.972 164.777 492.915C162.663 487.886 151.506 498.027 146.683 505.364C152.331 508.218 158.092 510.878 163.964 513.342C164.358 512.848 164.764 512.359 165.164 511.865C165.202 511.82 165.234 511.782 165.265 511.738C166.129 510.672 166.998 509.62 167.855 508.554C167.861 508.345 167.861 508.136 167.861 507.933C167.853 504.878 167.478 501.835 166.744 498.87C166.155 498.897 165.571 498.743 165.072 498.427C164.574 498.112 164.184 497.651 163.956 497.107C163.728 496.563 163.673 495.962 163.798 495.386C163.924 494.81 164.223 494.286 164.656 493.885V493.885Z" fill="white"/>
<path d="M301.944 361.892C303.468 362.942 305.204 363.646 307.029 363.953C308.855 364.261 310.726 364.165 312.51 363.671C314.294 363.178 315.948 362.3 317.356 361.099C318.764 359.898 319.891 358.403 320.658 356.719L365.462 360.907L354.463 340.286L313.603 339.471C310.687 338.371 307.468 338.377 304.557 339.49C301.646 340.602 299.245 342.743 297.808 345.507C296.371 348.271 295.998 351.465 296.76 354.485C297.523 357.505 299.367 360.14 301.944 361.892V361.892Z" fill="#FFB6B6"/>
<path d="M347.375 360.481L409.375 367.426L409.589 367.153C409.998 366.631 450.566 314.739 457.382 302.386C461.576 294.964 463.103 286.333 461.71 277.924L461.664 277.719L461.502 277.582C458.197 274.814 454.047 273.255 449.736 273.16C445.424 273.066 441.21 274.442 437.786 277.063C421.325 289.802 408.053 306.191 399.016 324.934L393.888 335.602L347.375 340.186V360.481Z" fill="#56B89A"/>
<path d="M297.073 505.613L285.129 533.404C283.415 533.524 281.7 533.622 279.982 533.696C278.624 533.765 277.272 533.816 275.907 533.854L275.444 534L275.063 533.88C273.229 533.937 271.389 533.973 269.542 533.987C268.761 533.994 267.98 534 267.193 534C266.825 534 266.457 534 266.089 533.994L266.882 531.279L267.815 528.064L271.522 515.329L276.872 496.944L284.831 500.356L297.073 505.613Z" fill="#FFB6B6"/>
<path d="M383.14 507.617C377.002 510.579 370.741 513.304 364.354 515.792L358.109 505.296L378.24 496.461L383.14 507.617Z" fill="#FFB6B6"/>
<path d="M425.617 459.913V482.021C421.904 484.761 418.118 487.403 414.257 489.948V459.913H425.617Z" fill="#BB7D7D"/>
<path d="M465.525 445.909C462.332 449.448 459.045 452.896 455.662 456.253C447.701 464.176 439.247 471.59 430.352 478.45H379.706C378.361 478.45 377.032 478.164 375.807 477.609C374.583 477.054 373.491 476.245 372.604 475.235L372.598 475.216C371.542 474.025 370.808 472.584 370.465 471.03L370.459 471.017C370.316 470.35 370.244 469.67 370.243 468.988V455.371C370.245 452.864 371.242 450.459 373.016 448.685C374.79 446.911 377.196 445.913 379.706 445.909H465.525Z" fill="#3F3D56"/>
<path d="M486.392 392.763L480.903 416.267C481.439 419.672 481.618 423.124 481.436 426.566C478.834 430.054 476.149 433.472 473.382 436.821C470.831 439.91 468.212 442.939 465.525 445.909C462.333 449.448 459.045 452.896 455.662 456.253C446.853 459.018 436.47 460.147 425.617 460.223C421.873 460.255 418.071 460.153 414.257 459.95C398.79 459.139 383.146 456.659 370.332 454.084C366.943 453.412 363.757 452.727 360.825 452.061C355.272 450.812 350.626 449.645 347.262 448.757C343.473 447.767 341.315 447.127 341.315 447.127L326.902 471.246L313.816 493.138L296.953 514.644C295.341 514.79 293.727 514.913 292.11 515.012C290.397 515.132 288.681 515.23 286.963 515.304C285.605 515.373 284.253 515.424 282.889 515.462L282.425 515.608L282.045 515.488L275.926 513.541L273.864 512.887L266.445 510.528C266.445 510.528 268.101 505.315 271.001 496.62C272.068 493.43 279.62 469.844 287.522 449.251C289.864 443.138 292.288 436.935 294.782 430.764C296.826 425.697 298.907 420.649 301.015 415.67C304.676 407.039 322.371 402.384 343.207 399.942C344.267 399.822 345.333 399.701 346.405 399.587C357.023 398.471 368.288 397.894 378.824 397.627C384.098 397.494 389.188 397.443 393.922 397.437C395.452 397.437 396.939 397.441 398.384 397.45H398.39C402.294 397.469 405.886 397.526 409.046 397.589C409.662 397.602 410.259 397.621 410.842 397.634H410.849C411.242 397.64 411.629 397.653 412.01 397.659C418.922 397.837 423.161 398.052 423.161 398.052L424.805 385.165L425.141 382.565L425.459 380.092V380.085L425.497 379.775L425.757 379.768L430.327 379.679L468.736 378.931L485.096 378.238L486.392 392.763Z" fill="#2F2E41"/>
<path d="M382.162 497.026C380.594 497.825 379.014 498.611 377.428 499.372C371.29 502.334 365.028 505.059 358.642 507.547C356.82 508.264 354.992 508.955 353.145 509.621C352.942 509.336 352.733 509.05 352.523 508.765C343.714 496.683 338.231 488.984 326.902 471.246C322.161 463.825 317.395 456.088 312.768 448.186L346.266 432.559L350.023 430.809L360.825 452.061L370.459 471.017L372.604 475.235L382.162 497.026Z" fill="#2F2E41"/>
<path d="M436.497 241.031C453.54 241.031 467.357 227.224 467.357 210.193C467.357 193.161 453.54 179.354 436.497 179.354C419.453 179.354 405.636 193.161 405.636 210.193C405.636 227.224 419.453 241.031 436.497 241.031Z" fill="#FFB6B6"/>
<path d="M491.584 306.049C491.33 280.579 492.079 287.955 490.061 279.184C484.641 255.604 462.142 251.304 458.22 250.772C457.802 249.66 457.16 248.647 456.333 247.794C455.507 246.941 454.513 246.267 453.415 245.815C452.317 245.362 451.137 245.14 449.949 245.162C448.761 245.185 447.591 245.451 446.51 245.945L439.002 249.836C431.722 253.166 436.14 257.976 433.627 265.568L430.987 273.622L409.351 333.383L413.73 356.119L413.737 356.132L416.688 371.448L425.438 381.409L425.275 379.819L425.078 380.124L425.072 380.13L424.564 380.885C425.268 381.271 425.967 381.652 426.652 382.033C428.429 383.009 430.162 383.967 431.85 384.905C432.256 385.134 432.656 385.356 433.056 385.584H433.062C433.316 385.724 433.57 385.863 433.817 386.003C440.151 389.541 416.707 395.985 421.917 399.01C422.641 399.429 423.358 399.847 424.063 400.259C448.053 414.282 467.194 431.748 473.382 436.821C476.149 433.473 478.834 430.054 481.436 426.566C483.797 423.414 486.084 420.207 488.296 416.945C488.684 414.396 488.944 411.846 489.198 409.348C489.502 406.341 487.916 378.494 488.449 375.43C488.684 374.073 487.782 372.786 486.913 371.543C486.107 370.382 485.345 369.291 485.504 368.264C485.669 367.205 486.837 366.051 487.973 364.928C489.21 363.698 490.492 362.429 490.676 361.091C491.184 357.362 489.096 353.62 489.49 349.866C490.137 343.758 490.634 337.632 490.981 331.487C491.47 323.001 491.671 314.522 491.584 306.049Z" fill="#56B89A"/>
<path d="M317.519 368.511C318.793 367.169 320.346 366.123 322.069 365.445C323.792 364.768 325.642 364.476 327.49 364.591C329.337 364.705 331.137 365.223 332.763 366.108C334.389 366.993 335.8 368.224 336.899 369.713L379.873 356.375L373.369 378.82L333.557 388.045C330.932 389.723 327.781 390.38 324.703 389.892C321.625 389.404 318.833 387.804 316.856 385.397C314.879 382.989 313.855 379.94 313.977 376.828C314.099 373.716 315.36 370.757 317.519 368.511L317.519 368.511Z" fill="#FFB6B6"/>
<path d="M369.618 380.928L449.384 364.495L428.683 369.619C428.917 368.999 452.183 307.389 455.01 293.569C456.802 285.236 455.688 276.542 451.853 268.929L451.747 268.746L451.552 268.664C447.572 267.005 443.145 266.751 439.001 267.944C434.858 269.136 431.244 271.704 428.757 275.225C416.838 292.284 409.051 311.878 406.009 332.461L404.293 344.17L376.17 352.577L369.618 380.928Z" fill="#56B89A"/>
<path d="M220.965 355.832C221.244 356.645 221.775 357.35 222.48 357.843C223.185 358.337 224.028 358.594 224.889 358.579L241.702 358.146C242.569 358.129 243.407 357.833 244.092 357.3C244.776 356.768 245.269 356.029 245.498 355.193L247.877 329.769C248.721 330.151 249.64 330.34 250.567 330.322C252.193 330.281 253.736 329.596 254.856 328.419C255.977 327.241 256.584 325.667 256.543 324.043C256.502 322.418 255.817 320.876 254.639 319.756C253.46 318.636 251.885 318.03 250.259 318.071C249.889 318.07 249.519 318.108 249.157 318.185C248.763 317.76 248.285 317.421 247.752 317.191C247.219 316.962 246.644 316.846 246.064 316.852L220.201 317.519C219.987 317.527 219.773 317.554 219.563 317.598C218.996 317.704 218.458 317.93 217.986 318.261C217.513 318.591 217.117 319.02 216.824 319.516C216.531 320.013 216.348 320.566 216.287 321.14C216.226 321.713 216.288 322.293 216.47 322.84L220.965 355.832ZM248.365 328.043L250.058 321.985C250.251 321.285 250.255 320.547 250.071 319.845C250.153 319.844 250.226 319.805 250.308 319.805C251.469 319.781 252.592 320.218 253.431 321.02C254.27 321.823 254.756 322.924 254.783 324.084C254.81 325.244 254.376 326.368 253.576 327.208C252.775 328.049 251.674 328.538 250.513 328.568C249.763 328.592 249.02 328.41 248.365 328.043Z" fill="#2F2E41"/>
<path d="M219.563 317.598C220.114 320.747 226.309 322.96 233.758 322.575C240.608 322.26 246.208 319.856 247.234 317.008C246.855 316.896 246.46 316.843 246.064 316.852L220.201 317.519C219.987 317.527 219.773 317.554 219.563 317.598Z" fill="#3F3D56"/>
<path d="M107.094 294.583V348.937C107.095 349.63 107.37 350.294 107.861 350.784C108.351 351.273 109.015 351.549 109.708 351.549H190.313C191.006 351.549 191.671 351.273 192.161 350.784C192.651 350.294 192.927 349.63 192.927 348.937V294.583C192.926 293.891 192.65 293.228 192.16 292.739C191.67 292.25 191.006 291.975 190.313 291.974H109.708C109.016 291.975 108.352 292.25 107.862 292.739C107.372 293.228 107.096 293.891 107.094 294.583Z" fill="#3F3D56"/>
<path d="M108.985 295.26V348.267C108.986 348.637 109.133 348.991 109.395 349.253C109.657 349.515 110.012 349.662 110.383 349.663H189.642C190.013 349.662 190.368 349.515 190.63 349.253C190.891 348.991 191.039 348.637 191.039 348.267V295.26C191.039 294.889 190.892 294.534 190.63 294.271C190.368 294.009 190.013 293.861 189.642 293.861H110.383C110.012 293.861 109.656 294.009 109.394 294.271C109.133 294.534 108.985 294.889 108.985 295.26Z" fill="#56B89A"/>
<path d="M105.409 359.537C105.556 359.722 105.744 359.872 105.958 359.974C106.171 360.076 106.405 360.128 106.642 360.127H192.951C193.187 360.127 193.42 360.074 193.633 359.972C193.846 359.871 194.033 359.723 194.182 359.54C194.331 359.357 194.437 359.143 194.492 358.913C194.548 358.684 194.552 358.445 194.503 358.215L193.163 351.855C193.108 351.596 192.988 351.355 192.816 351.153C192.643 350.952 192.422 350.797 192.175 350.702C191.995 350.632 191.804 350.596 191.611 350.596H107.977C107.784 350.596 107.592 350.632 107.413 350.702C107.165 350.797 106.945 350.952 106.772 351.153C106.599 351.355 106.48 351.596 106.424 351.855L105.084 358.215C105.037 358.445 105.041 358.684 105.097 358.913C105.153 359.141 105.26 359.355 105.409 359.537Z" fill="#2F2E41"/>
<path d="M188.649 353.335H190.688C190.859 353.335 190.998 353.197 190.998 353.026V352.051C190.998 351.88 190.859 351.741 190.688 351.741H188.649C188.478 351.741 188.34 351.88 188.34 352.051V353.026C188.34 353.197 188.478 353.335 188.649 353.335Z" fill="#3F3D56"/>
<path d="M183.333 353.335H185.372C185.543 353.335 185.681 353.197 185.681 353.026V352.051C185.681 351.88 185.543 351.741 185.372 351.741H183.333C183.162 351.741 183.023 351.88 183.023 352.051V353.026C183.023 353.197 183.162 353.335 183.333 353.335Z" fill="#3F3D56"/>
<path d="M178.016 353.335H180.055C180.226 353.335 180.365 353.197 180.365 353.026V352.051C180.365 351.88 180.226 351.741 180.055 351.741H178.016C177.845 351.741 177.706 351.88 177.706 352.051V353.026C177.706 353.197 177.845 353.335 178.016 353.335Z" fill="#3F3D56"/>
<path d="M172.7 353.335H174.739C174.91 353.335 175.048 353.197 175.048 353.026V352.051C175.048 351.88 174.91 351.741 174.739 351.741H172.7C172.529 351.741 172.39 351.88 172.39 352.051V353.026C172.39 353.197 172.529 353.335 172.7 353.335Z" fill="#3F3D56"/>
<path d="M167.383 353.335H169.422C169.593 353.335 169.732 353.197 169.732 353.026V352.051C169.732 351.88 169.593 351.741 169.422 351.741H167.383C167.212 351.741 167.073 351.88 167.073 352.051V353.026C167.073 353.197 167.212 353.335 167.383 353.335Z" fill="#3F3D56"/>
<path d="M162.067 353.335H164.105C164.277 353.335 164.415 353.197 164.415 353.026V352.051C164.415 351.88 164.277 351.741 164.105 351.741H162.067C161.896 351.741 161.757 351.88 161.757 352.051V353.026C161.757 353.197 161.896 353.335 162.067 353.335Z" fill="#3F3D56"/>
<path d="M156.75 353.335H158.789C158.96 353.335 159.099 353.197 159.099 353.026V352.051C159.099 351.88 158.96 351.741 158.789 351.741H156.75C156.579 351.741 156.44 351.88 156.44 352.051V353.026C156.44 353.197 156.579 353.335 156.75 353.335Z" fill="#3F3D56"/>
<path d="M151.434 353.335H153.472C153.644 353.335 153.782 353.197 153.782 353.026V352.051C153.782 351.88 153.644 351.741 153.472 351.741H151.434C151.263 351.741 151.124 351.88 151.124 352.051V353.026C151.124 353.197 151.263 353.335 151.434 353.335Z" fill="#3F3D56"/>
<path d="M146.117 353.335H148.156C148.327 353.335 148.466 353.197 148.466 353.026V352.051C148.466 351.88 148.327 351.741 148.156 351.741H146.117C145.946 351.741 145.807 351.88 145.807 352.051V353.026C145.807 353.197 145.946 353.335 146.117 353.335Z" fill="#3F3D56"/>
<path d="M140.8 353.335H142.839C143.01 353.335 143.149 353.197 143.149 353.026V352.051C143.149 351.88 143.01 351.741 142.839 351.741H140.8C140.629 351.741 140.491 351.88 140.491 352.051V353.026C140.491 353.197 140.629 353.335 140.8 353.335Z" fill="#3F3D56"/>
<path d="M135.484 353.335H137.523C137.694 353.335 137.833 353.197 137.833 353.026V352.051C137.833 351.88 137.694 351.741 137.523 351.741H135.484C135.313 351.741 135.174 351.88 135.174 352.051V353.026C135.174 353.197 135.313 353.335 135.484 353.335Z" fill="#3F3D56"/>
<path d="M130.167 353.335H132.206C132.377 353.335 132.516 353.197 132.516 353.026V352.051C132.516 351.88 132.377 351.741 132.206 351.741H130.167C129.996 351.741 129.858 351.88 129.858 352.051V353.026C129.858 353.197 129.996 353.335 130.167 353.335Z" fill="#3F3D56"/>
<path d="M124.851 353.335H126.89C127.061 353.335 127.199 353.197 127.199 353.026V352.051C127.199 351.88 127.061 351.741 126.89 351.741H124.851C124.68 351.741 124.541 351.88 124.541 352.051V353.026C124.541 353.197 124.68 353.335 124.851 353.335Z" fill="#3F3D56"/>
<path d="M119.534 353.335H121.573C121.744 353.335 121.883 353.197 121.883 353.026V352.051C121.883 351.88 121.744 351.741 121.573 351.741H119.534C119.363 351.741 119.225 351.88 119.225 352.051V353.026C119.225 353.197 119.363 353.335 119.534 353.335Z" fill="#3F3D56"/>
<path d="M114.218 353.335H116.257C116.428 353.335 116.566 353.197 116.566 353.026V352.051C116.566 351.88 116.428 351.741 116.257 351.741H114.218C114.047 351.741 113.908 351.88 113.908 352.051V353.026C113.908 353.197 114.047 353.335 114.218 353.335Z" fill="#3F3D56"/>
<path d="M108.901 353.335H110.94C111.111 353.335 111.25 353.197 111.25 353.026V352.051C111.25 351.88 111.111 351.741 110.94 351.741H108.901C108.73 351.741 108.591 351.88 108.591 352.051V353.026C108.591 353.197 108.73 353.335 108.901 353.335Z" fill="#3F3D56"/>
<path d="M188.712 355.992H190.751C190.922 355.992 191.061 355.853 191.061 355.682V354.707C191.061 354.536 190.922 354.398 190.751 354.398H188.712C188.541 354.398 188.403 354.536 188.403 354.707V355.682C188.403 355.853 188.541 355.992 188.712 355.992Z" fill="#3F3D56"/>
<path d="M183.396 355.992H185.434C185.605 355.992 185.744 355.853 185.744 355.682V354.707C185.744 354.536 185.605 354.398 185.434 354.398H183.396C183.225 354.398 183.086 354.536 183.086 354.707V355.682C183.086 355.853 183.225 355.992 183.396 355.992Z" fill="#3F3D56"/>
<path d="M178.079 355.992H180.118C180.289 355.992 180.428 355.853 180.428 355.682V354.707C180.428 354.536 180.289 354.398 180.118 354.398H178.079C177.908 354.398 177.769 354.536 177.769 354.707V355.682C177.769 355.853 177.908 355.992 178.079 355.992Z" fill="#3F3D56"/>
<path d="M172.763 355.992H174.801C174.972 355.992 175.111 355.853 175.111 355.682V354.707C175.111 354.536 174.972 354.398 174.801 354.398H172.763C172.592 354.398 172.453 354.536 172.453 354.707V355.682C172.453 355.853 172.592 355.992 172.763 355.992Z" fill="#3F3D56"/>
<path d="M167.446 355.992H169.485C169.656 355.992 169.794 355.853 169.794 355.682V354.707C169.794 354.536 169.656 354.398 169.485 354.398H167.446C167.275 354.398 167.136 354.536 167.136 354.707V355.682C167.136 355.853 167.275 355.992 167.446 355.992Z" fill="#3F3D56"/>
<path d="M162.13 355.992H164.168C164.339 355.992 164.478 355.853 164.478 355.682V354.707C164.478 354.536 164.339 354.398 164.168 354.398H162.13C161.958 354.398 161.82 354.536 161.82 354.707V355.682C161.82 355.853 161.958 355.992 162.13 355.992Z" fill="#3F3D56"/>
<path d="M156.813 355.992H158.852C159.023 355.992 159.161 355.853 159.161 355.682V354.707C159.161 354.536 159.023 354.398 158.852 354.398H156.813C156.642 354.398 156.503 354.536 156.503 354.707V355.682C156.503 355.853 156.642 355.992 156.813 355.992Z" fill="#3F3D56"/>
<path d="M151.497 355.992H153.535C153.706 355.992 153.845 355.853 153.845 355.682V354.707C153.845 354.536 153.706 354.398 153.535 354.398H151.497C151.325 354.398 151.187 354.536 151.187 354.707V355.682C151.187 355.853 151.325 355.992 151.497 355.992Z" fill="#3F3D56"/>
<path d="M146.18 355.992H148.218C148.39 355.992 148.528 355.853 148.528 355.682V354.707C148.528 354.536 148.39 354.398 148.218 354.398H146.18C146.009 354.398 145.87 354.536 145.87 354.707V355.682C145.87 355.853 146.009 355.992 146.18 355.992Z" fill="#3F3D56"/>
<path d="M140.863 355.992H142.902C143.073 355.992 143.212 355.853 143.212 355.682V354.707C143.212 354.536 143.073 354.398 142.902 354.398H140.863C140.692 354.398 140.554 354.536 140.554 354.707V355.682C140.554 355.853 140.692 355.992 140.863 355.992Z" fill="#3F3D56"/>
<path d="M135.547 355.992H137.585C137.757 355.992 137.895 355.853 137.895 355.682V354.707C137.895 354.536 137.757 354.398 137.585 354.398H135.547C135.376 354.398 135.237 354.536 135.237 354.707V355.682C135.237 355.853 135.376 355.992 135.547 355.992Z" fill="#3F3D56"/>
<path d="M130.23 355.992H132.269C132.44 355.992 132.579 355.853 132.579 355.682V354.707C132.579 354.536 132.44 354.398 132.269 354.398H130.23C130.059 354.398 129.921 354.536 129.921 354.707V355.682C129.921 355.853 130.059 355.992 130.23 355.992Z" fill="#3F3D56"/>
<path d="M124.914 355.992H126.952C127.123 355.992 127.262 355.853 127.262 355.682V354.707C127.262 354.536 127.123 354.398 126.952 354.398H124.914C124.743 354.398 124.604 354.536 124.604 354.707V355.682C124.604 355.853 124.743 355.992 124.914 355.992Z" fill="#3F3D56"/>
<path d="M119.597 355.992H121.636C121.807 355.992 121.946 355.853 121.946 355.682V354.707C121.946 354.536 121.807 354.398 121.636 354.398H119.597C119.426 354.398 119.288 354.536 119.288 354.707V355.682C119.288 355.853 119.426 355.992 119.597 355.992Z" fill="#3F3D56"/>
<path d="M114.281 355.992H116.319C116.49 355.992 116.629 355.853 116.629 355.682V354.707C116.629 354.536 116.49 354.398 116.319 354.398H114.281C114.11 354.398 113.971 354.536 113.971 354.707V355.682C113.971 355.853 114.11 355.992 114.281 355.992Z" fill="#3F3D56"/>
<path d="M108.964 355.992H111.003C111.174 355.992 111.313 355.853 111.313 355.682V354.707C111.313 354.536 111.174 354.398 111.003 354.398H108.964C108.793 354.398 108.654 354.536 108.654 354.707V355.682C108.654 355.853 108.793 355.992 108.964 355.992Z" fill="#3F3D56"/>
<path d="M144.585 359.179H165.231C165.403 359.179 165.541 359.041 165.541 358.87V357.895C165.541 357.724 165.403 357.585 165.231 357.585H144.585C144.414 357.585 144.275 357.724 144.275 357.895V358.87C144.275 359.041 144.414 359.179 144.585 359.179Z" fill="#3F3D56"/>
<path d="M300.169 356.582L336.243 325.066C337.958 323.567 334.687 328.032 336.187 329.746C337.686 331.46 343.388 329.774 341.673 331.273L305.599 362.789L296.464 364.873L300.169 356.582Z" fill="#3F3D56"/>
<path d="M300.169 356.582L301.043 355.818C302.21 356.403 303.252 357.21 304.108 358.194C305.123 359.351 305.86 360.724 306.263 362.208L305.599 362.789L298.318 364.449L296.464 364.873L297.237 363.136L300.169 356.582Z" fill="#7B7373"/>
<path d="M297.237 363.136C297.507 363.255 297.746 363.436 297.934 363.664C298.122 363.892 298.253 364.161 298.318 364.449L296.464 364.873L297.237 363.136Z" fill="#3F3D56"/>
<path d="M535.539 255.571C532.137 260.657 526.692 264.177 520.828 265.921C518.445 266.63 515.986 267.047 513.504 267.164C513.197 264.359 512.463 261.617 511.327 259.034C511.442 261.783 511.059 264.531 510.197 267.145C506.469 266.934 502.825 265.958 499.49 264.279C492.985 260.949 487.978 254.582 486.867 247.358C485.56 238.923 489.387 230.64 490.77 222.218C492.16 213.796 489.552 203.129 481.301 200.915C475.018 199.228 475.722 199.958 470.499 203.833C475.932 211.861 455.864 241.279 447.651 238.714C443.008 237.263 440.035 233.006 439.077 233.006C432.623 244.117 444.776 262.839 432.527 266.727L433.536 265.718C440.93 256.63 425.476 237.395 432.87 228.307C434.933 225.763 437.129 222.751 436.519 219.536C435.942 216.479 431.087 214.861 429.665 217.373C432.223 211.519 428.447 203.706 422.195 202.203C416.642 200.865 416.743 202.514 411.171 203.23C410.807 200.824 410.126 198.476 409.146 196.248C409.249 198.649 408.968 201.051 408.315 203.363C406.347 203.325 404.446 202.638 402.908 201.41C398.364 197.751 399.284 190.064 403.339 185.872C407.401 181.68 413.437 180.171 419.193 179.194C420.867 167.549 453.017 166.335 457.279 177.97C459.094 169.281 469.979 164.772 478.439 167.468C486.899 170.163 492.769 178.059 495.86 186.379C498.951 194.694 499.814 203.642 501.718 212.306C503.622 220.969 506.84 229.791 513.466 235.695C520.091 241.593 530.887 243.546 537.868 238.067C540.071 243.775 538.935 250.478 535.539 255.571Z" fill="#2F2E41"/>
</g>
<defs>
<clipPath id="clip0_742_72">
<rect width="539" height="534" fill="white"/>
</clipPath>
</defs>
</svg>
