<svg width="1440" height="288" viewBox="0 0 1440 288" fill="none" xmlns="http://www.w3.org/2000/svg">
<path fill-rule="evenodd" clip-rule="evenodd" d="M1454.92 5.14984e-05H1406.39C1357.86 5.14984e-05 1260.79 5.14984e-05 1163.73 30C1066.67 60 969.611 120 872.55 156C775.489 192 678.428 204 581.367 192C484.305 180 387.244 144 290.183 138C193.122 132 96.0609 156 47.5304 168L-0.999984 180V288H47.5304C96.0609 288 193.122 288 290.183 288C387.244 288 484.305 288 581.367 288C678.428 288 775.489 288 872.55 288C969.611 288 1066.67 288 1163.73 288C1260.79 288 1357.86 288 1406.39 288H1454.92V5.14984e-05Z" fill="#E2F9F3"/>
</svg>
